<?xml version="1.0" encoding="UTF-8"?>
<svg width="15px" height="15px" viewBox="0 0 15 15" version="1.1" xmlns="http://www.w3.org/2000/svg" xmlns:xlink="http://www.w3.org/1999/xlink">
    <!-- Generator: Sketch 61.2 (89653) - https://sketch.com -->
    <title>noun_Calendar_2080654</title>
    <desc>Created with Sketch.</desc>
    <g id="Page-1" stroke="none" stroke-width="1" fill="none" fill-rule="evenodd">
        <g id="iPhone-XS-Copy-2" transform="translate(-54.000000, -378.000000)" fill="#000000" fill-rule="nonzero">
            <g id="Tile" transform="translate(30.000000, 279.000000)">
                <g id="Group-2" transform="translate(24.000000, 98.000000)">
                    <g id="noun_Calendar_2080654" transform="translate(0.000000, 1.000000)">
                        <g id="Group">
                            <path d="M12.90625,1.03723404 L12.25,1.03723404 L12.0625,1.7393617 C11.90625,2.37765957 11.296875,2.85638298 10.671875,2.85638298 C10.328125,2.85638298 10,2.71276596 9.8125,2.44148936 C9.609375,2.17021277 9.546875,1.80319149 9.640625,1.45212766 L9.75,1.03723404 L7.640625,1.03723404 L7.453125,1.7393617 C7.28125,2.37765957 6.6875,2.85638298 6.046875,2.85638298 C5.703125,2.85638298 5.390625,2.71276596 5.1875,2.44148936 C4.984375,2.17021277 4.921875,1.80319149 5.015625,1.45212766 L5.125,1.03723404 L4.4375,1.03723404 C3.390625,1.03723404 2.34375,1.86702128 2.078125,2.93617021 L0.140625,10.2287234 C-0.015625,10.8031915 0.078125,11.3776596 0.40625,11.7925532 C0.71875,12.2074468 1.203125,12.4468085 1.75,12.4468085 L2.703125,12.4468085 L2.703125,12.8776596 C2.703125,14.0106383 3.609375,14.9361702 4.71875,14.9361702 L12.90625,14.9361702 C14.015625,14.9361702 14.921875,14.0106383 14.921875,12.8776596 L14.921875,3.09574468 C14.921875,1.96276596 14.015625,1.03723404 12.90625,1.03723404 Z M1.765625,11.2021277 C1.640625,11.2021277 1.484375,11.1702128 1.390625,11.0425532 C1.296875,10.9308511 1.28125,10.7553191 1.34375,10.5638298 L2.9375,4.46808511 L12.65625,4.46808511 L11.140625,10.2446809 C11,10.7712766 10.453125,11.2180851 9.953125,11.2180851 L1.765625,11.2180851 L1.765625,11.2021277 Z M13.703125,12.8776596 C13.703125,13.3244681 13.34375,13.6914894 12.90625,13.6914894 L4.734375,13.6914894 C4.296875,13.6914894 3.9375,13.3244681 3.9375,12.8776596 L3.9375,12.4468085 L9.953125,12.4468085 C11,12.4468085 12.046875,11.6170213 12.3125,10.5478723 L13.703125,5.26595745 L13.703125,12.8776596 Z" id="Shape"></path>
                            <path d="M6.046875,2.28191489 C6.421875,2.28191489 6.796875,1.9787234 6.890625,1.59574468 L7.109375,0.75 C7.203125,0.367021277 6.984375,0.0638297872 6.625,0.0638297872 C6.25,0.0638297872 5.875,0.367021277 5.78125,0.75 L5.5625,1.59574468 C5.46875,1.96276596 5.6875,2.28191489 6.046875,2.28191489 Z" id="Path"></path>
                            <path d="M10.671875,2.28191489 C11.046875,2.28191489 11.421875,1.9787234 11.515625,1.59574468 L11.734375,0.75 C11.828125,0.367021277 11.609375,0.0638297872 11.25,0.0638297872 C10.875,0.0638297872 10.5,0.367021277 10.40625,0.75 L10.171875,1.59574468 C10.078125,1.96276596 10.296875,2.28191489 10.671875,2.28191489 Z" id="Path"></path>
                            <path d="M7.53125,8.21808511 L6.078125,8.21808511 C5.984375,8.21808511 5.875,8.29787234 5.84375,8.39361702 L5.5625,9.4787234 C5.53125,9.57446809 5.59375,9.65425532 5.6875,9.65425532 L7.140625,9.65425532 C7.234375,9.65425532 7.34375,9.57446809 7.375,9.4787234 L7.65625,8.39361702 C7.6875,8.29787234 7.625,8.21808511 7.53125,8.21808511 Z" id="Path"></path>
                            <path d="M4.96875,8.21808511 L3.515625,8.21808511 C3.421875,8.21808511 3.3125,8.29787234 3.28125,8.39361702 L3,9.4787234 C2.96875,9.57446809 3.03125,9.65425532 3.125,9.65425532 L4.578125,9.65425532 C4.671875,9.65425532 4.78125,9.57446809 4.8125,9.4787234 L5.09375,8.39361702 C5.125,8.29787234 5.078125,8.21808511 4.96875,8.21808511 Z" id="Path"></path>
                            <path d="M10.09375,8.21808511 L8.640625,8.21808511 C8.546875,8.21808511 8.4375,8.29787234 8.40625,8.39361702 L8.125,9.4787234 C8.09375,9.57446809 8.15625,9.65425532 8.25,9.65425532 L9.703125,9.65425532 C9.796875,9.65425532 9.90625,9.57446809 9.9375,9.4787234 L10.21875,8.39361702 C10.25,8.29787234 10.1875,8.21808511 10.09375,8.21808511 Z" id="Path"></path>
                            <path d="M8.125,5.93617021 L6.671875,5.93617021 C6.578125,5.93617021 6.46875,6.01595745 6.4375,6.11170213 L6.15625,7.19680851 C6.125,7.29255319 6.1875,7.37234043 6.28125,7.37234043 L7.734375,7.37234043 C7.828125,7.37234043 7.9375,7.29255319 7.96875,7.19680851 L8.25,6.11170213 C8.28125,6.01595745 8.234375,5.93617021 8.125,5.93617021 Z" id="Path"></path>
                            <path d="M5.578125,5.93617021 L4.125,5.93617021 C4.03125,5.93617021 3.921875,6.01595745 3.890625,6.11170213 L3.609375,7.19680851 C3.578125,7.29255319 3.640625,7.37234043 3.734375,7.37234043 L5.1875,7.37234043 C5.28125,7.37234043 5.390625,7.29255319 5.421875,7.19680851 L5.703125,6.11170213 C5.734375,6.01595745 5.671875,5.93617021 5.578125,5.93617021 Z" id="Path"></path>
                            <path d="M8.859375,7.38829787 L10.3125,7.38829787 C10.40625,7.38829787 10.515625,7.30851064 10.546875,7.21276596 L10.828125,6.12765957 C10.859375,6.03191489 10.796875,5.95212766 10.703125,5.95212766 L9.25,5.95212766 C9.15625,5.95212766 9.046875,6.03191489 9.015625,6.12765957 L8.734375,7.21276596 C8.703125,7.29255319 8.75,7.38829787 8.859375,7.38829787 Z" id="Path"></path>
                        </g>
                    </g>
                </g>
            </g>
        </g>
    </g>
</svg>