<?xml version="1.0" encoding="UTF-8"?>
<svg width="36px" height="36px" viewBox="0 0 36 36" version="1.1" xmlns="http://www.w3.org/2000/svg" xmlns:xlink="http://www.w3.org/1999/xlink">
    <!-- Generator: Sketch 52.2 (67145) - http://www.bohemiancoding.com/sketch -->
    <title>noun_Info_817950 (1)@3x</title>
    <desc>Created with Sketch.</desc>
    <defs>
        <filter x="-5.2%" y="-11.7%" width="110.4%" height="123.5%" filterUnits="objectBoundingBox" id="filter-1">
            <feOffset dx="0" dy="2" in="SourceAlpha" result="shadowOffsetOuter1"></feOffset>
            <feGaussianBlur stdDeviation="3.5" in="shadowOffsetOuter1" result="shadowBlurOuter1"></feGaussianBlur>
            <feColorMatrix values="0 0 0 0 0   0 0 0 0 0   0 0 0 0 0  0 0 0 0.1 0" type="matrix" in="shadowBlurOuter1" result="shadowMatrixOuter1"></feColorMatrix>
            <feMerge>
                <feMergeNode in="shadowMatrixOuter1"></feMergeNode>
                <feMergeNode in="SourceGraphic"></feMergeNode>
            </feMerge>
        </filter>
    </defs>
    <g id="V2" stroke="none" stroke-width="1" fill="none" fill-rule="evenodd">
        <g id="InputField-Copy-8" transform="translate(-32.000000, -383.000000)" fill="#353535" fill-rule="nonzero">
            <g id="Group-4-Copy" filter="url(#filter-1)" transform="translate(19.000000, 325.000000)">
                <g id="noun_Info_817950-(1)" transform="translate(20.000000, 63.000000)">
                    <path d="M11,0 C4.91333333,0 0,4.91333333 0,11 C0,17.0866667 4.91333333,22 11,22 C17.0866667,22 22,17.0866667 22,11 C22,4.91333333 17.0866667,0 11,0 Z M12.3933333,16.06 C11.9533333,16.2311111 11.5866667,16.3777778 11.3177778,16.4511111 C11.0488889,16.5244444 10.8288889,16.5488889 10.6333333,16.5488889 C10.2422222,16.5488889 9.94888889,16.4511111 9.75333333,16.2311111 C9.55777778,16.0355556 9.46,15.7666667 9.46,15.4733333 C9.46,15.3511111 9.46,15.2533333 9.48444444,15.1311111 C9.50888889,15.0088889 9.53333333,14.8622222 9.58222222,14.6666667 L10.3644444,11.5377778 C10.4133333,11.3666667 10.4377778,11.1711111 10.4866667,10.9755556 C10.5355556,10.78 10.5355556,10.6088889 10.5355556,10.4622222 C10.5355556,10.1933333 10.4866667,9.99777778 10.3888889,9.92444444 C10.2911111,9.82666667 10.12,9.77777778 9.82666667,9.77777778 C9.72888889,9.77777778 9.58222222,9.80222222 9.38666667,9.82666667 C9.21555556,9.85111111 9.06888889,9.9 8.97111111,9.92444444 L9.09333333,9.46 C9.48444444,9.28888889 9.82666667,9.16666667 10.12,9.06888889 C10.4133333,8.99555556 10.6577778,8.94666667 10.8533333,8.94666667 C11.2444444,8.94666667 11.5377778,9.04444444 11.7333333,9.24 C11.9044444,9.43555556 12.0022222,9.68 12.0022222,10.0222222 C12.0022222,10.12 12.0022222,10.2422222 11.9777778,10.3888889 C11.9533333,10.5355556 11.9288889,10.6822222 11.88,10.8533333 L11.0977778,13.9822222 C11.0488889,14.1777778 11,14.3733333 10.9755556,14.5444444 C10.9511111,14.74 10.9266667,14.8866667 10.9266667,15.0088889 C10.9266667,15.2777778 11,15.4733333 11.1222222,15.5955556 C11.2444444,15.6933333 11.44,15.7422222 11.7333333,15.7422222 C11.8311111,15.7422222 11.9533333,15.7422222 12.1244444,15.6933333 C12.2955556,15.6444444 12.4422222,15.6444444 12.5155556,15.5955556 L12.3933333,16.06 Z M12.76,6.91777778 C12.5888889,7.13777778 12.3444444,7.23555556 12.0755556,7.23555556 C11.8311111,7.23555556 11.6111111,7.13777778 11.4155556,6.94222222 C11.2444444,6.74666667 11.1466667,6.52666667 11.1466667,6.25777778 C11.1466667,5.98888889 11.2444444,5.74444444 11.4155556,5.54888889 C11.5866667,5.35333333 11.8066667,5.25555556 12.0755556,5.25555556 C12.3444444,5.25555556 12.5888889,5.35333333 12.76,5.54888889 C12.9311111,5.74444444 13.0288889,5.96444444 13.0288889,6.20888889 C13.0288889,6.45333333 12.9555556,6.69777778 12.76,6.91777778 Z" id="Shape"></path>
                </g>
            </g>
        </g>
    </g>
</svg>