<?xml version="1.0" encoding="UTF-8"?>
<svg width="72px" height="76px" viewBox="0 0 72 76" version="1.1" xmlns="http://www.w3.org/2000/svg" xmlns:xlink="http://www.w3.org/1999/xlink">
    <!-- Generator: Sketch 52.2 (67145) - http://www.bohemiancoding.com/sketch -->
    <title>noun_loading_2397635</title>
    <desc>Created with Sketch.</desc>
    <g id="V2" stroke="none" stroke-width="1" fill="none" fill-rule="evenodd">
        <g id="Loading-Copy-2" transform="translate(-152.000000, -344.000000)" fill="#FFFFFF">
            <g id="noun_loading_2397635" transform="translate(152.000000, 344.000000)">
                <path d="M41.490245,0 C46.7489241,0 51.012363,4.25079379 51.012363,9.49522291 C51.012363,14.739652 46.7489241,18.9915377 41.490245,18.9915377 C36.2326607,18.9915377 31.9692219,14.739652 31.9692219,9.49522291 C31.9692219,4.25079379 36.2326607,1.55169311e-15 41.490245,1.55169311e-15 Z M66.2464379,17.7653262 C69.2759538,20.7855409 69.2759538,25.6838355 66.2464379,28.705142 C63.2169219,31.7264486 58.3064126,31.7264486 55.2768966,28.705142 C52.2473807,25.6838355 52.2473807,20.7855409 55.2768966,17.7653262 C58.3064126,14.7440197 63.2169219,14.7440197 66.2464379,17.7653262 Z M72,46.5392584 C72,50.5902332 68.7077143,53.8725055 64.6468271,53.8725055 C60.58594,53.8725055 57.2936543,50.5902332 57.2936543,46.5392584 C57.2936543,42.4893755 60.58594,39.2060112 64.6468271,39.2060112 C68.7077143,39.2060112 72,42.4893755 72,46.5392584 Z M55.673241,70.5492005 C53.0203616,73.194891 48.7196971,73.194891 46.0668177,70.5492005 C43.4139384,67.9035099 43.4139384,63.6134075 46.0668177,60.9677169 C48.7196971,58.3220263 53.0203616,58.3220263 55.673241,60.9677169 C58.3261203,63.6134075 58.3261203,67.9035099 55.673241,70.5492005 Z M27.5021365,76 C23.9755478,76 21.1168322,73.1501228 21.1168322,69.6330905 C21.1168322,66.1160582 23.9755478,63.2650891 27.5021365,63.2650891 C31.0287252,63.2650891 33.886346,66.1160582 33.886346,69.6330905 C33.886346,73.1501228 31.0287252,76 27.5021365,76 Z M4.59628047,59.5187564 C2.58828181,57.516199 2.58828181,54.2710515 4.59628047,52.2684942 C6.60318426,50.2670287 9.85824425,50.2670287 11.865148,52.2684942 C13.8731467,54.2710515 13.8731467,57.516199 11.865148,59.5187564 C9.85824425,61.5202218 6.60318426,61.5202218 4.59628047,59.5187564 Z M0,32.5890551 C0,30.195595 1.94559085,28.2552764 4.34555436,28.2552764 C6.74551786,28.2552764 8.69110871,30.195595 8.69110871,32.5890551 C8.69110871,34.9825151 6.74551786,36.9228338 4.34555436,36.9228338 C1.94559085,36.9228338 7.77954669e-16,34.9825151 0,32.5890551 Z M15.2362647,10.492134 C16.830401,8.90231743 19.4143033,8.90231743 21.0084397,10.492134 C22.602576,12.0819505 22.602576,14.6588509 21.0084397,16.2486674 C19.4143033,17.8373921 16.830401,17.8373921 15.2362647,16.2486674 C13.6432232,14.6588509 13.6432232,12.0819505 15.2362647,10.492134 Z" id="Shape"></path>
            </g>
        </g>
    </g>
</svg>