<?xml version="1.0" encoding="UTF-8"?>
<svg width="15px" height="15px" viewBox="0 0 15 15" version="1.1" xmlns="http://www.w3.org/2000/svg" xmlns:xlink="http://www.w3.org/1999/xlink">
    <!-- Generator: Sketch 61.2 (89653) - https://sketch.com -->
    <title>noun_Time_1948544</title>
    <desc>Created with Sketch.</desc>
    <g id="Page-1" stroke="none" stroke-width="1" fill="none" fill-rule="evenodd">
        <g id="iPhone-XS-Copy-2" transform="translate(-182.000000, -378.000000)" fill="#000000" fill-rule="nonzero">
            <g id="Tile" transform="translate(30.000000, 279.000000)">
                <g id="Group-4" transform="translate(152.000000, 98.000000)">
                    <g id="noun_Time_1948544" transform="translate(0.000000, 1.000000)">
                        <path d="M7.49832515,1.09200536 C11.0322689,1.09200536 13.9063198,3.96605628 13.9063198,7.5 C13.9063198,11.0339437 11.0322689,13.9079946 7.49832515,13.9079946 C3.96438142,13.9079946 1.0903305,11.0339437 1.0903305,7.5 C1.0903305,3.96605628 3.96438142,1.09200536 7.49832515,1.09200536 M7.49832515,0 C3.35640911,0 0,3.35808397 0,7.5 C0,11.641916 3.35808397,15 7.5,15 C11.641916,15 15,11.641916 15,7.5 C15,3.35808397 11.6402412,0 7.49832515,0 Z M10.6654757,11.0289192 C10.5582849,11.0289192 10.4510942,10.9970969 10.3556275,10.9317776 L7.2588209,8.79298794 C7.11143368,8.6908218 7.02266637,8.52333631 7.02266637,8.34412684 L7.02266637,3.54566771 C7.02266637,3.24419384 7.26719518,2.99966503 7.56866905,2.99966503 C7.87014292,2.99966503 8.11467173,3.24419384 8.11467173,3.54566771 L8.11467173,8.05772666 L10.9769987,10.0340554 C11.2248772,10.2048906 11.2868468,10.5448861 11.1160116,10.7927646 C11.0088209,10.9451764 10.8396606,11.0289192 10.6654757,11.0289192 L10.6654757,11.0289192 Z" id="Shape"></path>
                    </g>
                </g>
            </g>
        </g>
    </g>
</svg>